<svg width="670.619629" height="210.568329" viewBox="0 0 670.62 210.568" fill="none" xmlns="http://www.w3.org/2000/svg" xmlns:xlink="http://www.w3.org/1999/xlink">
	<desc>
			Created with Pixso.
	</desc>
	<defs>
		<radialGradient gradientTransform="translate(335.308 105.284) rotate(-90) scale(104.999 335.001)" cx="0.000000" cy="0.000000" r="1.000000" id="paint_angular_5_1_0" gradientUnits="userSpaceOnUse">
			<stop offset="0.001056" stop-color="#BA18F4"/>
			<stop offset="0.249520" stop-color="#FF6A3D"/>
			<stop offset="0.497712" stop-color="#BED53E"/>
			<stop offset="0.749954" stop-color="#19F4BA"/>
		</radialGradient>
	</defs>
	<path id="合并" d="M131.532 193.542Q131.532 196.234 130.581 198.532Q129.629 200.831 127.725 202.734Q125.821 204.638 123.523 205.59Q121.225 206.542 118.532 206.542L13 206.542Q10.3076 206.542 8.00952 205.59Q5.71143 204.638 3.80762 202.734Q1.90381 200.831 0.951904 198.533Q0 196.234 0 193.542L0 13Q0 10.3076 0.951904 8.00952Q1.90381 5.71143 3.80762 3.80762Q5.71143 1.90381 8.00952 0.951904L8.00952 0.951904Q10.3076 0 13 3.05176e-05L29.1064 0Q31.7988 0 34.0969 0.951935L34.0969 0.951935Q36.395 1.90384 38.2988 3.80762Q40.2026 5.71146 41.1545 8.00955Q42.1064 10.3076 42.1064 13L42.1064 162.037Q42.1064 163.487 42.6189 164.725Q43.1316 165.962 44.1565 166.987Q45.1816 168.012 46.4192 168.525Q47.6567 169.037 49.1064 169.037L118.532 169.037Q121.225 169.037 123.523 169.989Q125.821 170.941 127.725 172.845Q129.628 174.749 130.58 177.047Q131.532 179.345 131.532 182.037L131.532 193.542ZM506.182 42.2203C506.577 42.3106 506.976 42.3567 507.379 42.3584C507.78 42.3551 508.176 42.3081 508.568 42.2176C508.96 42.127 509.339 41.9948 509.705 41.8208C510.072 41.6468 510.418 41.4348 510.744 41.1846C511.07 40.9344 511.369 40.6514 511.641 40.3355L523.76 26.4129L523.905 26.2344C524.188 25.8969 524.456 25.5461 524.71 25.1822C524.963 24.8183 525.2 24.4427 525.422 24.0555C525.643 23.6682 525.847 23.2709 526.034 22.8636C526.221 22.4563 526.391 22.0407 526.543 21.6167C526.695 21.1927 526.828 20.7622 526.943 20.3251C527.058 19.8881 527.154 19.4463 527.231 18.9998C527.308 18.5533 527.366 18.1039 527.405 17.6517C527.443 17.1995 527.463 16.7463 527.463 16.2922C527.463 15.8381 527.443 15.3849 527.405 14.9327C527.366 14.4805 527.308 14.0312 527.231 13.5847C527.154 13.1382 527.058 12.6964 526.943 12.2593C526.828 11.8222 526.695 11.3917 526.543 10.9677C526.391 10.5438 526.221 10.1281 526.034 9.72083C525.847 9.31351 525.643 8.91623 525.422 8.52899C525.2 8.14175 524.963 7.76617 524.71 7.40225C524.456 7.03833 524.188 6.68759 523.905 6.35004Q523.203 5.53094 522.383 4.85461Q522.214 4.71478 522.039 4.58102C521.36 4.06067 520.639 3.62073 519.875 3.2612C519.11 2.90167 518.32 2.63028 517.503 2.44699C516.686 2.26373 515.86 2.17249 515.026 2.17328Q514.841 2.17233 514.656 2.17798Q514.384 2.18625 514.112 2.20877C513.807 2.23395 513.505 2.27243 513.203 2.32419C512.902 2.37595 512.603 2.4408 512.307 2.51877C512.011 2.59674 511.718 2.68756 511.428 2.79123Q510.994 2.94672 510.573 3.13971C510.293 3.26837 510.018 3.40912 509.748 3.56192C509.478 3.71472 509.215 3.87909 508.957 4.05499Q508.572 4.31888 508.207 4.61569C507.964 4.81357 507.729 5.02173 507.502 5.24023C507.471 5.27011 507.44 5.30017 507.409 5.33041C507.326 5.26019 507.242 5.19116 507.157 5.12332C506.995 4.99445 506.831 4.87003 506.663 4.75012C506.496 4.63022 506.326 4.51498 506.153 4.40439C505.98 4.29376 505.804 4.18799 505.626 4.08698C505.448 3.98596 505.268 3.88989 505.086 3.79877C504.903 3.70761 504.719 3.62152 504.532 3.54047C504.345 3.45944 504.157 3.38354 503.967 3.31281C503.776 3.24207 503.584 3.17654 503.391 3.1163C503.198 3.05606 503.003 3.00113 502.807 2.95154C502.611 2.90192 502.414 2.8577 502.216 2.81888C502.018 2.78006 501.819 2.74664 501.619 2.71869C501.42 2.69077 501.219 2.66827 501.019 2.65128C500.818 2.63428 500.617 2.62277 500.416 2.61676C500.215 2.61075 500.013 2.61023 499.812 2.61523C499.611 2.62024 499.41 2.63074 499.209 2.64673C499.008 2.66272 498.808 2.6842 498.608 2.71115C498.408 2.7381 498.209 2.77051 498.011 2.80832C497.812 2.84616 497.615 2.8894 497.419 2.93802C497.223 2.98663 497.028 3.04059 496.834 3.09988C496.641 3.15915 496.449 3.22369 496.258 3.29349C496.068 3.36325 495.879 3.4382 495.692 3.51831C495.505 3.59842 495.32 3.68359 495.137 3.77383Q494.863 3.90918 494.595 4.05933C494.417 4.15942 494.241 4.26434 494.067 4.37408Q493.807 4.53867 493.555 4.71725C493.387 4.83633 493.222 4.9599 493.06 5.08801C492.898 5.21609 492.739 5.34851 492.583 5.48532C492.427 5.6221 492.275 5.76303 492.126 5.90817Q491.902 6.12582 491.689 6.35547C491.547 6.50854 491.409 6.66541 491.275 6.82605C490.995 7.15219 490.73 7.49118 490.479 7.84302C490.228 8.19482 489.992 8.55804 489.772 8.93268C489.552 9.30731 489.348 9.69183 489.16 10.0862C488.972 10.4806 488.801 10.8833 488.646 11.2942C488.492 11.7051 488.356 12.1227 488.237 12.5468Q488.217 12.6167 488.198 12.6867Q488.045 13.2545 487.934 13.834C487.852 14.2679 487.787 14.7049 487.741 15.1451C487.695 15.5852 487.668 16.0267 487.659 16.4695C487.65 16.9123 487.66 17.3546 487.688 17.7965C487.717 18.2383 487.763 18.6779 487.829 19.1152C487.894 19.5526 487.978 19.9858 488.08 20.4151C488.182 20.8443 488.301 21.2677 488.439 21.6854C488.576 22.103 488.731 22.5132 488.903 22.9158C489.075 23.3185 489.264 23.712 489.469 24.0964C489.674 24.4808 489.895 24.8545 490.132 25.2175C490.267 25.4244 490.406 25.6273 490.551 25.8263C490.591 25.9021 490.635 25.9747 490.685 26.0439C490.753 26.137 490.828 26.2221 490.91 26.2992C490.938 26.3318 490.967 26.3632 490.996 26.3932L503.095 40.3236C503.367 40.6426 503.667 40.9283 503.994 41.1808C504.321 41.4332 504.669 41.6469 505.038 41.8221C505.407 41.9972 505.788 42.1299 506.182 42.2203ZM493.582 24.1812L496.624 27.7219L505.503 37.9437C505.743 38.2238 506.025 38.4414 506.349 38.5965C506.673 38.7516 507.013 38.8315 507.368 38.8362C507.721 38.8313 508.059 38.7513 508.381 38.5961Q508.547 38.5161 508.698 38.4138Q508.987 38.219 509.221 37.9437L521.43 23.8664C521.646 23.6111 521.85 23.3456 522.043 23.0701C522.237 22.7946 522.417 22.5102 522.586 22.2168C522.755 21.9234 522.91 21.6223 523.053 21.3136C523.196 21.0048 523.325 20.6896 523.441 20.3681C523.557 20.0465 523.659 19.72 523.746 19.3884C523.834 19.0568 523.907 18.7216 523.966 18.3828C524.025 18.0439 524.069 17.7029 524.099 17.3597C524.128 17.0165 524.143 16.6726 524.143 16.3279Q524.143 16.0301 524.128 15.7329Q524.117 15.5143 524.099 15.2961C524.069 14.9529 524.025 14.6119 523.966 14.2731C523.907 13.9343 523.834 13.5991 523.746 13.2675C523.659 12.9359 523.557 12.6093 523.441 12.2878Q523.268 11.8054 523.053 11.3423Q522.839 10.8791 522.586 10.4391C522.417 10.1457 522.237 9.86121 522.043 9.58569C521.85 9.31018 521.646 9.04477 521.43 8.78949Q520.924 8.19464 520.333 7.70282Q520.212 7.6019 520.087 7.50531C519.598 7.12717 519.077 6.80698 518.526 6.54477C517.975 6.28256 517.405 6.08392 516.815 5.94888C516.225 5.81384 515.629 5.74527 515.026 5.74316C514.812 5.74097 514.598 5.74814 514.385 5.76471C514.172 5.78128 513.959 5.80713 513.748 5.84235C513.537 5.87753 513.327 5.92194 513.119 5.97552C512.911 6.02914 512.706 6.09177 512.502 6.16342C512.299 6.23505 512.099 6.31549 511.902 6.40469C511.705 6.49393 511.512 6.59161 511.322 6.69781C511.133 6.80399 510.948 6.9183 510.767 7.04074C510.586 7.16318 510.41 7.29337 510.239 7.43124Q509.983 7.63806 509.743 7.86667C509.583 8.01904 509.429 8.17819 509.282 8.34409C509.134 8.50998 508.993 8.68207 508.859 8.86035C508.724 9.03864 508.597 9.2225 508.476 9.41199C508.356 9.60147 508.243 9.7959 508.137 9.9953C508.031 10.1947 507.934 10.3984 507.844 10.6064C507.754 10.8143 507.672 11.0259 507.598 11.2411C507.524 11.4563 507.458 11.6743 507.401 11.8953C507.379 12.0143 507.345 12.1296 507.301 12.2414C507.257 12.3531 507.203 12.4589 507.139 12.5587C507.074 12.6586 507.001 12.7505 506.919 12.8344C506.838 12.9183 506.749 12.9925 506.653 13.0569C506.557 13.1214 506.456 13.1748 506.35 13.2172C506.244 13.2596 506.135 13.29 506.023 13.3086C505.911 13.3271 505.799 13.3333 505.686 13.3273C505.573 13.3213 505.461 13.3031 505.352 13.2727C505.242 13.2423 505.137 13.2003 505.035 13.1469C504.933 13.0934 504.838 13.0295 504.749 12.9551C504.659 12.8807 504.577 12.7975 504.504 12.7053C504.43 12.6131 504.366 12.5139 504.311 12.4076C504.257 12.3014 504.212 12.1903 504.179 12.0745C504.145 11.9586 504.123 11.8402 504.112 11.7195C504.101 11.5987 504.101 11.478 504.113 11.3573C504.125 11.2366 504.148 11.1184 504.182 11.0028Q504.303 10.5295 504.46 10.0683C504.564 9.76086 504.68 9.45847 504.807 9.16119C504.934 8.86389 505.073 8.57269 505.222 8.28754C505.254 8.22739 505.286 8.16754 505.319 8.10803C505.162 7.97763 505.002 7.85321 504.837 7.73471C504.594 7.5603 504.344 7.39966 504.087 7.25281C503.829 7.10596 503.565 6.97363 503.294 6.85587C503.024 6.73813 502.748 6.63553 502.468 6.54813C502.188 6.46069 501.904 6.38892 501.617 6.33273Q501.328 6.27625 501.036 6.24124Q500.893 6.22403 500.749 6.21204C500.458 6.18771 500.167 6.17947 499.875 6.18726C499.583 6.19507 499.292 6.21887 499.003 6.25867C498.713 6.29849 498.427 6.35413 498.142 6.42554C497.858 6.49695 497.578 6.5838 497.302 6.6861C497.026 6.78836 496.756 6.90552 496.491 7.03757C496.227 7.16962 495.969 7.31589 495.718 7.47632C495.468 7.63675 495.225 7.81052 494.991 7.99765C494.757 8.18478 494.533 8.38431 494.318 8.59616C494.103 8.80801 493.899 9.03113 493.705 9.26547C493.494 9.51144 493.294 9.76712 493.104 10.0325C492.914 10.2979 492.736 10.572 492.57 10.8546C492.403 11.1373 492.249 11.4274 492.107 11.725C491.965 12.0227 491.836 12.3266 491.719 12.6367C491.603 12.9469 491.5 13.262 491.41 13.5822C491.32 13.9023 491.244 14.2262 491.181 14.5537C491.119 14.8812 491.07 15.2111 491.036 15.5434C491.001 15.8756 490.98 16.2089 490.974 16.5431C490.967 16.8774 490.975 17.2112 490.996 17.5448C491.018 17.8783 491.053 18.2101 491.103 18.5402C491.153 18.8702 491.216 19.1972 491.293 19.5211C491.37 19.8451 491.461 20.1646 491.565 20.4798C491.669 20.7949 491.786 21.1043 491.917 21.4081C492.047 21.7119 492.189 22.0088 492.345 22.2987C492.5 22.5887 492.667 22.8705 492.846 23.1442C493.025 23.4179 493.215 23.6825 493.417 23.9377C493.478 24.0143 493.533 24.0955 493.582 24.1812ZM125.532 193.542L125.532 182.037Q125.532 180.588 125.02 179.35Q124.507 178.113 123.482 177.088Q122.457 176.062 121.219 175.55Q119.982 175.037 118.532 175.037L49.1064 175.037Q46.4141 175.037 44.116 174.085Q41.8179 173.134 39.9141 171.23Q38.0103 169.326 37.0583 167.028Q36.1064 164.73 36.1064 162.037L36.1064 13Q36.1064 11.5503 35.5938 10.3128Q35.0813 9.07538 34.0562 8.05026Q33.031 7.02515 31.7935 6.51257Q30.5562 6 29.1064 6L13 6.00003Q11.5503 6.00003 10.313 6.51257Q9.07544 7.02515 8.05029 8.05026Q7.02515 9.07541 6.5127 10.3128Q6 11.5503 6 13L6 193.542Q6 194.992 6.5127 196.229Q7.02515 197.467 8.05029 198.492Q9.07544 199.517 10.313 200.029Q11.5503 200.542 13 200.542L118.532 200.542Q119.982 200.542 121.219 200.029Q122.457 199.517 123.482 198.492Q124.507 197.467 125.02 196.229Q125.532 194.992 125.532 193.542ZM284.696 161.446Q279.318 176.779 269.467 187.682Q266.448 191 263.05 193.869L263.049 193.87Q255.318 200.397 245.623 204.599Q231.753 210.568 215.111 210.568Q198.396 210.568 184.601 204.6Q175.816 200.732 168.614 194.907L168.614 194.907Q164.539 191.611 160.971 187.689Q151.122 176.789 145.604 161.469Q140.178 146.207 140.178 127.747Q140.178 109.283 145.602 94.1695Q151.131 78.9688 161.126 68.142Q165.955 62.9142 171.62 58.8526L171.62 58.8523Q177.798 54.4228 184.97 51.3803Q198.68 45.4911 215.111 45.4911Q231.434 45.4911 245.269 51.3581L245.323 51.3811Q254.131 55.0589 261.321 60.7734L261.322 60.7743Q265.532 64.1208 269.187 68.1657Q279.025 78.9796 284.545 94.1576Q290.043 109.276 290.043 127.747Q290.043 146.2 284.696 161.446ZM625.263 172.433L625.286 172.421Q626.947 171.521 628.02 170.159Q629.983 167.669 629.983 163.631Q629.983 161.507 629.293 159.637Q628.028 156.209 624.446 153.636Q618.035 148.918 602.962 143.271Q593.386 139.763 585.337 135.808Q577.115 131.658 571.08 126.235Q569.128 124.456 567.44 122.456Q563.752 118.086 561.321 112.655Q557.77 104.648 557.77 93.2757Q557.77 80.2582 563.373 70.4362Q567.333 63.4928 574.094 58.1465Q590.096 45.4911 617.239 45.4911Q630.698 45.4911 643.033 48.0247Q648.66 49.1476 653.016 50.2629Q655.384 50.869 657.179 52.23Q659.013 53.6194 660.25 55.7954Q661.306 57.652 661.676 59.6366Q662.134 62.0895 661.545 64.7376L659.791 72.6281Q659.218 75.2083 657.837 77.2395Q656.051 79.8659 652.916 81.5746Q650.218 83.045 647.388 83.3737Q644.635 83.6933 641.757 82.9333Q640.357 82.5633 638.865 82.2075Q630.31 80.0995 618.918 80.0995Q609.113 80.0995 603.134 83.3396Q600.691 84.6777 599.44 86.7392Q598.127 88.9027 598.127 91.8629Q598.127 94.9826 599.138 97.3065Q600.14 99.4878 602.718 101.512Q605.606 103.779 610.485 106.109Q615.502 108.436 622.784 111.002L622.817 111.014L622.849 111.026Q635.336 115.753 644.104 120.358Q653.114 125.017 659.045 131.004Q662.74 134.688 665.204 139.066Q666.79 141.884 667.865 144.99Q670.62 152.654 670.62 163.349Q670.62 177.755 664.029 187.863Q659.985 194.066 653.46 198.65Q636.796 210.286 606.323 210.286Q586.115 210.286 573.687 206.858Q568.387 205.396 564.46 204.174Q562.2 203.471 560.494 202.087Q558.781 200.696 557.625 198.618Q556.617 196.806 556.256 194.872Q555.814 192.509 556.339 189.966L558.26 180.653Q558.833 177.876 560.326 175.743Q562.016 173.329 564.885 171.74Q567.519 170.282 570.274 169.997Q573.031 169.712 575.909 170.604Q579.189 171.619 582.825 172.603Q593.214 175.395 606.603 175.395Q619.619 175.395 625.263 172.433ZM420.18 207.205L420.178 207.205Q403.902 210.003 384.475 210.003Q365.812 210.003 353.076 204.609Q341.028 199.436 333.41 190.491L333.391 190.468Q332.872 189.859 332.374 189.231Q324.687 179.456 321.384 165.97Q318.149 152.689 318.149 137.001L318.149 62.2349Q318.149 59.5426 319.101 57.2447Q320.052 54.9464 321.957 53.0425Q323.86 51.1389 326.158 50.1869Q328.456 49.2349 331.149 49.2349L345.786 49.2349Q348.478 49.2349 350.777 50.1869Q353.074 51.1389 354.978 53.0425Q356.882 54.9464 357.834 57.2446Q358.786 59.5426 358.786 62.2349L358.786 131.491Q358.786 154.879 365.276 164.576Q366.039 165.697 366.951 166.679Q373.407 173.629 387.344 173.629Q393.52 173.629 400.397 173.073Q401.917 172.952 403.259 172.814Q405.43 172.592 406.635 171.396Q408.135 169.906 408.135 166.906L408.135 62.2349Q408.135 59.5427 409.087 57.2445Q410.038 54.9464 411.942 53.0425Q413.846 51.1386 416.144 50.1867Q418.442 49.2349 421.135 49.2349L435.842 49.2349Q438.534 49.2349 440.832 50.1868Q443.13 51.1388 445.034 53.0425Q446.938 54.9464 447.89 57.2446Q448.842 59.5426 448.842 62.2349L448.842 191.143Q448.842 193.472 448.099 195.535Q447.417 197.43 446.107 199.099Q444.691 200.905 442.858 202.04Q441.1 203.129 438.958 203.599Q430.883 205.373 420.18 207.205ZM500.202 206.542Q497.51 206.542 495.212 205.59Q492.914 204.638 491.01 202.734Q489.106 200.83 488.154 198.532Q487.202 196.234 487.202 193.542L487.202 62.2349Q487.202 59.5426 488.154 57.2446Q489.106 54.9464 491.01 53.0425Q492.914 51.1388 495.212 50.1868Q497.51 49.2349 500.202 49.2349L514.909 49.2349Q517.602 49.2349 519.9 50.1867Q522.198 51.1386 524.102 53.0424Q526.005 54.9462 526.957 57.2442Q527.909 59.5424 527.909 62.2349L527.909 193.542Q527.909 196.234 526.957 198.533Q526.005 200.831 524.102 202.734Q522.198 204.638 519.899 205.59Q517.601 206.542 514.909 206.542L500.202 206.542ZM279.034 159.46Q284.043 145.178 284.043 127.747Q284.043 110.333 278.906 96.2083Q273.79 82.1421 264.735 72.1883Q261.657 68.7821 258.139 65.9174L258.136 65.9156Q251.371 60.4084 242.976 56.903Q230.243 51.4911 215.111 51.4911Q199.914 51.4911 187.313 56.9039Q180.727 59.6979 175.06 63.7708Q169.919 67.4653 165.535 72.2119Q156.357 82.1527 151.25 96.1963Q146.178 110.327 146.178 127.747Q146.178 145.172 151.249 159.436Q156.366 173.643 165.409 183.652Q168.698 187.266 172.457 190.298Q179.006 195.581 186.983 199.093Q199.638 204.568 215.111 204.568Q230.516 204.568 243.237 199.094Q252.446 195.103 259.698 188.842L259.698 188.842Q262.503 186.42 265.015 183.659Q274.056 173.653 279.034 159.46ZM628.084 177.729Q621.13 181.395 606.603 181.395Q592.422 181.395 581.259 178.395Q577.518 177.383 574.135 176.335Q572.479 175.822 570.892 175.986Q569.307 176.15 567.791 176.989Q566.127 177.911 565.184 179.316Q564.431 180.437 564.136 181.865L562.215 191.178Q561.915 192.633 562.204 193.959Q562.4 194.86 562.868 195.702Q563.44 196.731 564.289 197.418Q565.13 198.099 566.242 198.445Q570.076 199.637 575.283 201.074Q586.927 204.286 606.323 204.286Q634.908 204.286 650.011 193.741Q655.286 190.035 658.656 185.042Q664.62 176.209 664.62 163.349Q664.62 153.699 662.196 146.953Q661.405 144.668 660.276 142.563Q658.136 138.57 654.782 135.227Q649.517 129.912 641.314 125.67Q632.88 121.24 620.756 116.649Q613.225 113.994 607.899 111.523Q602.422 108.908 599.012 106.231Q595.293 103.31 593.635 99.6993Q592.127 96.2307 592.127 91.8629Q592.127 87.1513 594.203 83.6809Q596.24 80.275 600.275 78.0645Q607.592 74.0995 618.918 74.0995Q631.038 74.0995 640.256 76.3711Q641.819 76.7439 643.289 77.1322Q645.013 77.5875 646.666 77.4009Q648.395 77.2055 650.045 76.3063Q651.987 75.2479 653.01 73.614Q653.655 72.584 653.934 71.326L655.688 63.4355Q656.027 61.9131 655.722 60.5324Q655.52 59.6154 655.034 58.761Q654.427 57.6927 653.526 57.0151Q652.662 56.3657 651.528 56.0754Q647.328 55 641.825 53.902Q630.089 51.4911 617.239 51.4911Q592.182 51.4911 577.815 62.8526Q572.184 67.306 568.811 73.0787Q563.77 81.7044 563.77 93.2757Q563.77 103.378 566.797 110.204Q569.074 115.291 572.607 119.26Q573.78 120.578 575.091 121.772Q580.531 126.662 587.983 130.423Q595.749 134.238 605.066 137.653Q620.921 143.591 627.945 148.762Q632.769 152.226 634.698 156.888Q635.983 159.994 635.983 163.631Q635.983 169.445 633.237 173.304Q631.332 175.98 628.107 177.716L628.084 177.729ZM419.165 201.291Q429.732 199.483 437.671 197.739Q440.154 197.193 441.445 195.65Q442.842 193.98 442.842 191.143L442.842 62.2349Q442.842 60.785 442.329 59.5475Q441.816 58.3102 440.791 57.2851Q439.766 56.26 438.529 55.7475Q437.291 55.2349 435.842 55.2349L421.135 55.2349Q419.685 55.2349 418.448 55.7475Q417.21 56.2602 416.185 57.2851Q415.16 58.3102 414.647 59.5476Q414.135 60.7851 414.135 62.2349L414.135 166.906Q414.135 169.545 413.19 171.784Q412.511 173.392 411.346 174.794Q409.871 176.569 407.984 177.568Q406.127 178.552 403.871 178.783Q402.463 178.927 400.88 179.054Q393.762 179.629 387.344 179.629Q371.828 179.629 363.656 171.882Q361.779 170.102 360.29 167.914Q352.786 156.702 352.786 131.491L352.786 62.2349Q352.786 60.7851 352.273 59.5476Q351.76 58.3102 350.736 57.2851Q349.71 56.26 348.473 55.7475Q347.236 55.2349 345.786 55.2349L331.149 55.2349Q329.699 55.2349 328.461 55.7475Q327.224 56.26 326.199 57.2851Q325.174 58.3102 324.661 59.5476Q324.149 60.7851 324.149 62.2349L324.149 137.001Q324.149 151.969 327.212 164.542Q330.206 176.768 337.073 185.5Q337.232 185.701 337.394 185.899Q344.215 194.275 355.416 199.084Q367.031 204.003 384.475 204.003Q403.392 204.003 419.163 201.292L419.165 201.291ZM500.202 200.542L514.909 200.542Q516.359 200.542 517.596 200.03Q518.834 199.517 519.859 198.492Q520.884 197.466 521.397 196.229Q521.909 194.992 521.909 193.542L521.909 62.2349Q521.909 60.7854 521.397 59.5479Q520.884 58.3103 519.859 57.2851Q518.834 56.2599 517.596 55.7473Q516.359 55.2349 514.909 55.2349L500.202 55.2349Q498.753 55.2349 497.515 55.7475Q496.278 56.26 495.253 57.2851Q494.228 58.3102 493.715 59.5476Q493.202 60.7851 493.202 62.2349L493.202 193.542Q493.202 194.992 493.715 196.229Q494.228 197.467 495.253 198.492Q496.278 199.517 497.515 200.029Q498.752 200.542 500.202 200.542ZM244.258 90.2276L244.264 90.2359Q254.497 104.166 254.497 127.747Q254.497 151.535 244.273 165.67Q239.559 172.201 233.188 175.795Q225.39 180.194 215.111 180.194Q204.719 180.194 196.865 175.73Q190.549 172.14 185.874 165.664Q175.725 151.529 175.725 127.747Q175.724 104.165 185.887 90.2359Q190.468 83.9579 196.624 80.4225Q204.559 75.8655 215.111 75.8655Q225.539 75.8654 233.414 80.3498Q239.632 83.8908 244.258 90.2276ZM239.417 93.7724Q235.684 88.6562 230.671 85.7384Q224.018 81.8655 215.111 81.8655Q206.079 81.8655 199.367 85.8119Q194.42 88.7204 190.734 93.7724Q181.725 106.121 181.725 127.747Q181.724 149.598 190.748 162.164Q194.513 167.381 199.594 170.335Q206.23 174.194 215.111 174.194Q223.858 174.194 230.433 170.414Q235.589 167.449 239.408 162.158Q248.497 149.592 248.497 127.747Q248.497 106.127 239.423 93.7809L239.417 93.7724Z" clip-rule="evenodd" fill="url(#paint_angular_5_1_0)" fill-opacity="1.000000" fill-rule="evenodd"/>
</svg>
