<svg width="671.934814" height="211.877686" viewBox="0 0 671.935 211.878" fill="none" xmlns="http://www.w3.org/2000/svg" xmlns:xlink="http://www.w3.org/1999/xlink">
	<desc>
			Created with Pixso.
	</desc>
	<defs>
		<linearGradient x1="0.967529" y1="0.938843" x2="670.967529" y2="0.938843" id="paint_linear_7_6_0" gradientUnits="userSpaceOnUse">
			<stop stop-color="#3F87A6"/>
			<stop offset="0.521814" stop-color="#F69D3C"/>
			<stop offset="1.000000" stop-color="#FFFFFF"/>
		</linearGradient>
	</defs>
	<path id="Louis" d="M131.781 194.826Q131.781 197.518 130.829 199.816Q129.877 202.114 127.973 204.018Q126.069 205.922 123.771 206.874Q121.473 207.826 118.781 207.826L13 207.826Q10.3076 207.826 8.00952 206.874Q5.71143 205.922 3.80762 204.018Q1.90381 202.114 0.951904 199.816L0.951904 199.816L0.951904 199.816Q0 197.518 0 194.826L0 13Q0 10.3076 0.951904 8.00946Q1.90381 5.71136 3.80762 3.80762Q5.71143 1.90381 8.00952 0.951904L8.00952 0.951904Q10.3076 0 13 0L29.1777 0Q31.8701 0 34.1682 0.951843L34.1682 0.951904Q36.4663 1.90375 38.3701 3.80762Q40.2739 5.71143 41.2258 8.00952Q42.1777 10.3076 42.1777 13L42.1777 163.119Q42.1777 164.569 42.6904 165.806Q43.2029 167.044 44.228 168.069Q45.2532 169.094 46.4907 169.607Q47.728 170.119 49.1777 170.119L118.781 170.119Q121.473 170.119 123.771 171.071Q126.069 172.023 127.973 173.927Q129.877 175.831 130.829 178.129Q131.781 180.427 131.781 183.119L131.781 194.826ZM507.178 42.4713C507.573 42.5622 507.973 42.6085 508.377 42.6103C508.779 42.6069 509.176 42.5597 509.568 42.4686C509.961 42.3774 510.341 42.2443 510.708 42.0692C511.075 41.8942 511.422 41.6807 511.749 41.429C512.076 41.1772 512.375 40.8923 512.647 40.5744L524.791 26.5627L524.936 26.3831C525.219 26.0433 525.489 25.6904 525.742 25.3241C525.996 24.9579 526.234 24.5799 526.456 24.1902C526.677 23.8005 526.882 23.4006 527.07 22.9907C527.257 22.5808 527.427 22.1625 527.579 21.7358C527.731 21.3091 527.865 20.8759 527.98 20.436C528.095 19.9961 528.191 19.5515 528.268 19.1021C528.346 18.6528 528.404 18.2005 528.443 17.7454C528.481 17.2903 528.501 16.8343 528.501 16.3773Q528.501 15.9797 528.481 15.5831Q528.467 15.2958 528.443 15.0091C528.404 14.554 528.346 14.1017 528.268 13.6523C528.191 13.203 528.095 12.7584 527.98 12.3185Q527.807 11.6587 527.579 11.0187C527.427 10.592 527.257 10.1737 527.07 9.76379C526.882 9.35388 526.677 8.95404 526.456 8.56433C526.234 8.17462 525.996 7.79663 525.742 7.43036Q525.362 6.88098 524.936 6.37146C524.37 5.70825 523.747 5.11481 523.067 4.59113C522.386 4.06738 521.663 3.62463 520.898 3.26282C520.132 2.901 519.34 2.62787 518.521 2.44342C517.703 2.25897 516.875 2.16711 516.039 2.16791C515.733 2.16638 515.428 2.17828 515.123 2.20361C514.819 2.229 514.515 2.2677 514.213 2.31982C513.911 2.37189 513.612 2.43719 513.315 2.51562L513.269 2.52789Q512.847 2.64142 512.435 2.78986C512.145 2.89417 511.859 3.01105 511.578 3.14056C511.297 3.27002 511.021 3.41168 510.751 3.56543C510.481 3.71924 510.217 3.88464 509.959 4.06171C509.701 4.23877 509.45 4.42682 509.207 4.62598C508.963 4.82513 508.728 5.03461 508.5 5.25452C508.469 5.28461 508.438 5.31482 508.407 5.34528C508.324 5.2746 508.24 5.20514 508.155 5.13684C507.993 5.00714 507.828 4.88196 507.66 4.76129C507.492 4.64062 507.322 4.5246 507.149 4.41333C506.975 4.302 506.8 4.19556 506.621 4.09387C506.443 3.99225 506.262 3.89557 506.079 3.80383C505.896 3.7121 505.711 3.62543 505.524 3.54388C505.337 3.46234 505.149 3.38593 504.958 3.31476C504.767 3.24353 504.575 3.17761 504.382 3.117C504.188 3.05634 503.993 3.0011 503.796 2.95117C503.6 2.90125 503.403 2.85675 503.204 2.81769C503.006 2.77856 502.806 2.745 502.606 2.71686C502.406 2.68872 502.206 2.66608 502.005 2.64899C501.803 2.6319 501.602 2.6203 501.4 2.61426C501.199 2.60822 500.997 2.60767 500.795 2.61273C500.594 2.61774 500.392 2.6283 500.191 2.64441Q500.124 2.64978 500.057 2.65594Q499.823 2.67761 499.589 2.70923C499.389 2.73639 499.189 2.76898 498.99 2.80707C498.792 2.84515 498.594 2.88861 498.398 2.93756C498.201 2.98651 498.006 3.04077 497.812 3.10046C497.618 3.1601 497.426 3.2251 497.235 3.29529C497.044 3.36554 496.854 3.44098 496.667 3.52161C496.48 3.60223 496.294 3.68793 496.111 3.77875C495.928 3.86951 495.747 3.96533 495.568 4.06604C495.389 4.16681 495.213 4.2724 495.039 4.38281C494.865 4.49323 494.695 4.6084 494.526 4.72821C494.358 4.84802 494.193 4.97241 494.03 5.10132C493.868 5.23022 493.708 5.36353 493.552 5.50116C493.396 5.63879 493.243 5.7807 493.094 5.9267C492.945 6.07275 492.799 6.22284 492.657 6.37689C492.514 6.53094 492.376 6.68878 492.241 6.85046C491.961 7.17871 491.695 7.5199 491.444 7.87396C491.192 8.22803 490.956 8.59357 490.736 8.97058C490.515 9.34766 490.31 9.73462 490.122 10.1315C489.933 10.5284 489.762 10.9337 489.608 11.3472Q489.376 11.9676 489.198 12.6079C489.078 13.0348 488.977 13.4666 488.894 13.9033C488.811 14.34 488.747 14.7798 488.7 15.2227C488.655 15.6657 488.627 16.11 488.618 16.5557C488.609 17.0013 488.619 17.4465 488.647 17.8911C488.676 18.3358 488.723 18.7782 488.789 19.2183C488.854 19.6584 488.938 20.0945 489.04 20.5265C489.142 20.9584 489.262 21.3846 489.4 21.8049C489.538 22.2252 489.693 22.638 489.865 23.0432C490.037 23.4485 490.226 23.8445 490.432 24.2314C490.638 24.6182 490.859 24.9943 491.096 25.3597Q491.299 25.6719 491.516 25.9723C491.556 26.0486 491.601 26.1217 491.651 26.1913C491.718 26.2851 491.793 26.3708 491.876 26.4484C491.904 26.4811 491.932 26.5125 491.962 26.5427L504.084 40.5624C504.357 40.8835 504.657 41.171 504.986 41.4251C505.313 41.6791 505.662 41.8943 506.032 42.0705C506.401 42.2467 506.783 42.3803 507.178 42.4713ZM494.552 24.3168L497.601 27.88L506.498 38.1673C506.738 38.4492 507.021 38.6682 507.346 38.8243C507.67 38.9804 508.01 39.0608 508.366 39.0654C508.72 39.0605 509.058 38.9801 509.381 38.8239C509.704 38.6678 509.985 38.4489 510.223 38.1673L522.456 23.9999C522.672 23.7429 522.877 23.4758 523.071 23.1985C523.264 22.9213 523.446 22.635 523.615 22.3397C523.783 22.0445 523.94 21.7415 524.083 21.4307C524.226 21.12 524.355 20.8028 524.471 20.4792C524.587 20.1556 524.689 19.827 524.777 19.4932C524.865 19.1595 524.938 18.8221 524.997 18.4811C525.056 18.1401 525.101 17.7969 525.13 17.4515C525.16 17.1062 525.175 16.76 525.175 16.4131C525.175 16.0663 525.16 15.7202 525.13 15.3748C525.101 15.0294 525.056 14.6862 524.997 14.3452C524.938 14.0042 524.865 13.6668 524.777 13.3331C524.689 12.9994 524.587 12.6708 524.471 12.3472C524.355 12.0236 524.226 11.7064 524.083 11.3956C523.94 11.0849 523.783 10.7819 523.615 10.4866Q523.361 10.0437 523.071 9.62781C522.877 9.35052 522.672 9.08344 522.456 8.82648C522.049 8.34546 521.6 7.91467 521.11 7.53412C520.62 7.1535 520.099 6.8313 519.547 6.56738C518.994 6.30353 518.423 6.10364 517.832 5.96771C517.241 5.83179 516.643 5.76282 516.039 5.76068C515.825 5.75848 515.611 5.76569 515.397 5.78235C515.183 5.79901 514.971 5.82507 514.759 5.86047C514.547 5.89587 514.337 5.94061 514.129 5.99451C513.92 6.04846 513.714 6.11151 513.511 6.18359C513.307 6.25574 513.107 6.33667 512.909 6.42645C512.712 6.51624 512.518 6.61456 512.328 6.72144C512.138 6.82831 511.953 6.94336 511.772 7.06653C511.591 7.18976 511.414 7.3208 511.243 7.45953C511.072 7.59833 510.906 7.74438 510.746 7.89777C510.586 8.05115 510.432 8.2113 510.284 8.37823C510.136 8.54523 509.995 8.71838 509.86 8.89783C509.725 9.07721 509.597 9.26227 509.477 9.453C509.356 9.64368 509.243 9.83936 509.137 10.04C509.031 10.2407 508.933 10.4457 508.843 10.655C508.753 10.8643 508.67 11.0773 508.596 11.2938C508.522 11.5104 508.457 11.7298 508.399 11.9521C508.377 12.0719 508.344 12.188 508.3 12.3005C508.255 12.4129 508.201 12.5194 508.136 12.6199C508.072 12.7204 507.999 12.8129 507.917 12.8973C507.835 12.9817 507.746 13.0563 507.65 13.1212C507.554 13.1861 507.452 13.2399 507.346 13.2825C507.24 13.3251 507.131 13.3558 507.019 13.3745Q506.928 13.3895 506.838 13.3939Q506.759 13.3976 506.681 13.3934C506.567 13.3873 506.456 13.369 506.346 13.3384C506.236 13.3078 506.131 13.2656 506.029 13.2118C505.927 13.158 505.831 13.0936 505.741 13.0188C505.652 12.9439 505.57 12.8601 505.497 12.7673C505.423 12.6746 505.358 12.5747 505.304 12.4678C505.249 12.3609 505.205 12.2491 505.171 12.1325C505.137 12.0159 505.115 11.8968 505.104 11.7753C505.093 11.6537 505.093 11.5322 505.105 11.4108C505.117 11.2893 505.14 11.1703 505.174 11.054C505.255 10.7364 505.348 10.4229 505.452 10.1135C505.557 9.80408 505.673 9.49976 505.8 9.20056C505.928 8.90137 506.067 8.60828 506.217 8.32135Q506.264 8.23022 506.313 8.14069C506.156 8.00946 505.995 7.88422 505.83 7.76495C505.587 7.58942 505.337 7.42773 505.078 7.27997C504.82 7.1322 504.555 6.99902 504.284 6.88049C504.013 6.76202 503.738 6.65875 503.457 6.5708C503.176 6.48279 502.891 6.41052 502.604 6.354C502.316 6.29749 502.026 6.25702 501.735 6.23254C501.443 6.20807 501.151 6.19977 500.858 6.20758C500.566 6.21545 500.275 6.23938 499.985 6.27948C499.695 6.31958 499.407 6.37555 499.122 6.44739C498.837 6.51929 498.557 6.60669 498.281 6.70966C498.004 6.81256 497.733 6.93048 497.468 7.06335C497.203 7.19629 496.945 7.34344 496.693 7.50488C496.442 7.66638 496.199 7.84125 495.965 8.0296Q495.613 8.31207 495.29 8.6319C495.075 8.84515 494.87 9.06964 494.677 9.30554Q494.359 9.67682 494.074 10.0775C493.884 10.3446 493.706 10.6204 493.539 10.9048C493.372 11.1893 493.218 11.4813 493.075 11.7808C492.933 12.0804 492.803 12.3862 492.687 12.6984C492.57 13.0105 492.467 13.3276 492.377 13.6498C492.287 13.972 492.21 14.298 492.148 14.6276C492.085 14.9572 492.036 15.2892 492.002 15.6236C491.967 15.958 491.946 16.2933 491.94 16.6298C491.933 16.9661 491.941 17.3022 491.962 17.6378C491.984 17.9734 492.02 18.3074 492.069 18.6396C492.119 18.9717 492.182 19.3008 492.26 19.6268C492.337 19.9528 492.428 20.2744 492.532 20.5916C492.636 20.9088 492.754 21.2202 492.884 21.5259C493.015 21.8316 493.158 22.1304 493.313 22.4222C493.469 22.714 493.636 22.9976 493.816 23.2731C493.995 23.5486 494.186 23.8148 494.387 24.0717C494.449 24.1488 494.504 24.2305 494.552 24.3168ZM125.781 194.826L125.781 183.119Q125.781 181.67 125.268 180.432Q124.756 179.195 123.73 178.169Q122.705 177.144 121.468 176.632Q120.23 176.119 118.781 176.119L49.1777 176.119Q46.4854 176.119 44.1873 175.167Q41.8892 174.215 39.9854 172.312Q38.0815 170.408 37.1296 168.11Q36.1777 165.812 36.1777 163.119L36.1777 13Q36.1777 11.5502 35.6653 10.3128Q35.1526 9.07538 34.1277 8.05023Q33.1025 7.02515 31.865 6.51257L31.865 6.51251Q30.6277 6 29.1777 6L13 6Q11.5503 6 10.313 6.51251Q9.07544 7.02509 8.05029 8.05023Q7.02515 9.07538 6.5127 10.3128Q6 11.5502 6 13L6 194.826Q6 196.275 6.5127 197.513Q7.02515 198.75 8.05029 199.775Q9.07544 200.8 10.313 201.313Q11.5503 201.826 13 201.826L118.781 201.826Q120.23 201.826 121.468 201.313Q122.705 200.8 123.73 199.775Q124.756 198.75 125.268 197.513Q125.781 196.275 125.781 194.826ZM285.25 162.449Q279.863 177.876 269.994 188.846Q266.877 192.288 263.355 195.25L263.355 195.25Q255.688 201.699 246.105 205.87Q232.207 211.878 215.531 211.878Q198.781 211.878 184.958 205.871Q176.291 202.038 169.162 196.295L169.161 196.295Q164.955 192.906 161.284 188.854Q151.418 177.886 145.89 162.473Q140.456 147.118 140.456 128.546Q140.456 109.969 145.889 94.7634Q151.427 79.47 161.439 68.5768Q166.369 63.2155 172.17 59.0729L172.17 59.0726Q178.268 54.7176 185.328 51.7095Q199.066 45.7822 215.531 45.7822Q231.767 45.7822 245.547 51.6009Q245.676 51.6553 245.805 51.7103Q254.502 55.3578 261.624 60.9954L261.624 60.9957Q265.961 64.4291 269.714 68.6005Q279.568 79.4808 285.098 94.7515Q290.605 109.962 290.605 128.546Q290.605 147.111 285.25 162.449ZM626.492 173.537L626.516 173.525Q628.163 172.629 629.234 171.277Q631.23 168.759 631.23 164.659Q631.23 162.493 630.522 160.59Q629.247 157.158 625.674 154.581Q619.251 149.832 604.147 144.15Q594.553 140.619 586.488 136.639Q578.25 132.462 572.204 127.005Q570.313 125.275 568.669 123.335Q564.901 118.89 562.429 113.345Q558.874 105.292 558.874 93.8535Q558.874 80.6781 564.556 70.7567Q568.512 63.8489 575.222 58.5185Q591.256 45.7822 618.454 45.7822Q631.942 45.7822 644.301 48.3322Q649.966 49.4677 654.345 50.5953Q656.708 51.2036 658.499 52.5638Q660.329 53.9531 661.564 56.1257Q662.616 57.9781 662.987 59.9582Q663.445 62.4081 662.86 65.0533L661.076 73.1095Q660.504 75.6943 659.122 77.729Q657.335 80.3599 654.194 82.071Q651.49 83.5441 648.654 83.8712Q645.898 84.1889 643.017 83.4248Q641.615 83.0529 640.121 82.6951Q631.55 80.5738 620.137 80.5738Q610.314 80.5738 604.324 83.8343Q601.894 85.1712 600.639 87.226Q599.299 89.4197 599.299 92.4316Q599.299 95.5778 600.314 97.9222Q601.32 100.122 603.906 102.161Q606.801 104.444 611.689 106.788Q616.717 109.13 624.012 111.713L624.046 111.724L624.078 111.737Q636.588 116.494 645.375 121.129Q654.402 125.817 660.344 131.842Q663.999 135.501 666.45 139.841Q668.079 142.725 669.177 145.909Q671.935 153.618 671.935 164.375Q671.935 178.95 665.255 189.153Q661.22 195.316 654.749 199.883Q638.051 211.593 607.517 211.593Q587.268 211.593 574.815 208.143Q569.477 206.664 565.53 205.43Q563.277 204.726 561.575 203.343Q559.864 201.952 558.711 199.876Q557.706 198.068 557.345 196.139Q556.903 193.779 557.425 191.239L559.373 181.752Q559.944 178.971 561.438 176.835Q563.13 174.416 566.004 172.826Q568.644 171.365 571.404 171.083Q574.164 170.8 577.045 171.696Q580.331 172.718 583.975 173.708Q594.383 176.517 607.797 176.517Q620.837 176.517 626.492 173.537ZM421.007 208.493L421.004 208.493Q404.697 211.309 385.23 211.309Q366.529 211.309 353.767 205.88Q341.797 200.718 334.192 191.824L334.184 191.814Q333.592 191.121 333.027 190.406Q325.327 180.573 322.019 167.005Q318.779 153.644 318.779 137.858L318.779 62.55Q318.779 59.8578 319.73 57.5596Q320.682 55.2615 322.586 53.3576Q324.49 51.4539 326.788 50.5019Q329.086 49.55 331.779 49.55L346.484 49.55Q349.177 49.55 351.475 50.5019Q353.773 51.4539 355.676 53.3576Q357.58 55.2615 358.532 57.5596Q359.484 59.8578 359.484 62.55L359.484 132.313Q359.484 155.86 365.992 165.626Q366.781 166.79 367.729 167.806Q374.203 174.74 388.104 174.74Q394.293 174.74 401.183 174.181Q402.719 174.058 404.075 173.918Q406.241 173.694 407.443 172.5Q408.942 171.011 408.942 168.013L408.942 62.55Q408.942 59.8577 409.894 57.5598Q410.846 55.2615 412.75 53.3576Q414.654 51.4537 416.952 50.5018Q419.25 49.55 421.942 49.55L436.718 49.55Q439.41 49.55 441.708 50.5019Q444.007 51.4539 445.91 53.3576Q447.814 55.2615 448.766 57.5596Q449.718 59.8578 449.718 62.55L449.718 192.405Q449.718 194.733 448.976 196.795Q448.295 198.688 446.988 200.356Q445.573 202.161 443.743 203.297Q441.987 204.386 439.848 204.858Q431.747 206.646 421.007 208.493ZM501.167 207.826Q498.474 207.826 496.176 206.874Q493.878 205.922 491.974 204.018Q490.07 202.114 489.118 199.816Q488.167 197.518 488.167 194.826L488.167 62.55Q488.167 59.8577 489.118 57.5597Q490.07 55.2615 491.974 53.3576Q493.878 51.4541 496.175 50.5022L496.176 50.502Q498.474 49.55 501.167 49.55L515.942 49.55Q518.635 49.55 520.933 50.5018Q523.231 51.454 525.135 53.3576Q527.038 55.2613 527.99 57.5593Q528.942 59.8575 528.942 62.55L528.942 194.826Q528.942 197.518 527.99 199.816Q527.038 202.114 525.135 204.018Q523.231 205.922 520.933 206.874Q518.634 207.826 515.942 207.826L501.167 207.826ZM279.585 160.471Q284.605 146.094 284.605 128.546Q284.605 111.015 279.456 96.7943Q274.329 82.6336 265.253 72.6133Q262.077 69.083 258.433 66.1307Q251.732 60.7025 243.449 57.2285Q230.692 51.7822 215.531 51.7822Q200.305 51.7822 187.68 57.2294Q181.208 59.9871 175.621 63.9832Q170.344 67.7578 165.856 72.6371Q156.658 82.6443 151.539 96.7823Q146.456 111.009 146.456 128.546Q146.456 146.087 151.538 160.448Q156.667 174.75 165.731 184.826Q169.123 188.571 173.014 191.694Q179.49 196.892 187.349 200.368Q200.028 205.878 215.531 205.878Q230.966 205.878 243.71 200.369Q252.807 196.409 259.998 190.229Q262.923 187.715 265.533 184.833Q274.595 174.76 279.585 160.471ZM629.323 178.827Q622.355 182.517 607.797 182.517Q593.588 182.517 582.402 179.498Q578.653 178.479 575.263 177.425Q573.606 176.91 572.017 177.072Q570.429 177.235 568.91 178.075Q567.242 178.998 566.298 180.406Q565.544 181.529 565.25 182.959L563.302 192.446Q563.004 193.899 563.293 195.224Q563.489 196.123 563.956 196.962Q564.527 197.99 565.374 198.677Q566.212 199.357 567.32 199.703Q571.174 200.908 576.417 202.361Q588.083 205.593 607.517 205.593Q636.157 205.593 651.29 194.981Q656.519 191.291 659.881 186.334Q665.935 177.408 665.935 164.375Q665.935 154.658 663.505 147.865Q662.69 145.502 661.52 143.332L661.52 143.331Q659.387 139.374 656.072 136.055Q650.796 130.705 642.575 126.436Q634.125 121.977 621.977 117.357Q614.432 114.685 609.094 112.198Q603.607 109.567 600.19 106.873Q596.466 103.935 594.808 100.306Q593.299 96.821 593.299 92.4316Q593.299 87.6726 595.399 84.173Q597.437 80.7749 601.455 78.5645Q608.787 74.5738 620.137 74.5738Q632.282 74.5738 641.519 76.8601Q643.083 77.2348 644.556 77.6254Q646.281 78.0832 647.935 77.8978Q649.669 77.7034 651.324 76.8021Q653.27 75.7417 654.294 74.1044Q654.939 73.0727 655.218 71.8128L657.001 63.7567Q657.338 62.2362 657.033 60.8574Q656.831 59.9424 656.347 59.0898Q655.74 58.0222 654.84 57.3448Q653.979 56.6967 652.849 56.4058Q648.628 55.3187 643.089 54.2084Q631.329 51.7822 618.454 51.7822Q593.349 51.7822 578.954 63.2166Q573.368 67.6544 569.998 73.3937Q564.874 82.1195 564.874 93.8535Q564.874 104.026 567.909 110.902Q570.228 116.105 573.845 120.146L573.848 120.149Q574.973 121.406 576.224 122.551Q581.676 127.472 589.143 131.258Q596.924 135.098 606.26 138.534Q622.146 144.511 629.184 149.714Q633.993 153.184 635.928 157.846Q637.23 160.983 637.23 164.659Q637.23 170.531 634.453 174.419Q632.551 177.082 629.346 178.815L629.323 178.827ZM419.988 202.58Q430.591 200.757 438.555 198.999Q441.034 198.452 442.323 196.91Q443.718 195.24 443.718 192.405L443.718 62.55Q443.718 61.1002 443.205 59.8627Q442.693 58.6253 441.668 57.6002Q440.643 56.5751 439.405 56.0626Q438.168 55.55 436.718 55.55L421.942 55.55Q420.493 55.55 419.255 56.0626Q418.018 56.5751 416.993 57.6002Q415.968 58.6253 415.455 59.8627Q414.942 61.1002 414.942 62.55L414.942 168.013Q414.942 170.651 413.998 172.89Q413.32 174.496 412.158 175.896Q410.684 177.671 408.8 178.67Q406.945 179.654 404.691 179.886Q403.267 180.033 401.668 180.162Q394.536 180.74 388.104 180.74Q372.623 180.74 364.441 173.012Q362.518 171.196 360.999 168.953Q353.484 157.676 353.484 132.313L353.484 62.55Q353.484 61.1002 352.971 59.8627Q352.459 58.6253 351.434 57.6002Q350.409 56.5751 349.171 56.0626Q347.934 55.55 346.484 55.55L331.779 55.55Q330.329 55.55 329.091 56.0626Q327.854 56.5751 326.829 57.6002Q325.804 58.6253 325.291 59.8627Q324.779 61.1002 324.779 62.55L324.779 137.858Q324.779 152.927 327.848 165.584Q330.85 177.893 337.734 186.685Q337.941 186.948 338.153 187.207L338.177 187.236Q344.991 195.562 356.116 200.359Q367.752 205.309 385.23 205.309Q404.184 205.309 419.986 202.58L419.988 202.58ZM501.167 201.826L515.942 201.826Q517.392 201.826 518.629 201.313Q519.867 200.8 520.892 199.775Q521.917 198.75 522.43 197.512Q522.942 196.275 522.942 194.826L522.942 62.55Q522.942 61.1005 522.43 59.863Q521.917 58.6254 520.892 57.6002Q519.866 56.575 518.629 56.0624Q517.392 55.55 515.942 55.55L501.167 55.55Q499.717 55.55 498.479 56.0626Q497.242 56.5751 496.217 57.6002Q495.192 58.6253 494.679 59.8627Q494.167 61.1002 494.167 62.55L494.167 194.826Q494.167 196.275 494.679 197.513Q495.192 198.75 496.217 199.775Q497.242 200.8 498.479 201.313Q499.717 201.826 501.167 201.826ZM244.734 90.8023L244.74 90.8107Q254.989 104.823 254.989 128.546Q254.989 152.476 244.749 166.695Q239.991 173.316 233.547 176.937Q225.767 181.309 215.531 181.309Q205.181 181.309 197.344 176.871Q190.956 173.254 186.237 166.689Q176.072 152.47 176.072 128.546Q176.072 104.822 186.25 90.8107Q190.875 84.4442 197.104 80.8808Q205.021 76.3511 215.531 76.351Q225.916 76.3511 233.773 80.808Q240.064 84.3766 244.734 90.8023ZM239.886 94.337Q236.109 89.1378 231.026 86.1938Q224.391 82.3511 215.531 82.351Q206.546 82.351 199.853 86.2668Q194.835 89.2019 191.105 94.337Q182.072 106.771 182.072 128.546Q182.072 150.546 191.118 163.199Q194.927 168.5 200.079 171.48Q206.697 175.309 215.531 175.309Q224.232 175.309 230.787 171.558Q236.014 168.568 239.877 163.193Q248.989 150.54 248.989 128.546Q248.989 106.777 239.892 94.3454L239.886 94.337Z" clip-rule="evenodd" fill="url(#paint_linear_7_6_0)" fill-opacity="1.000000" fill-rule="evenodd"/>
</svg>
